<?xml version="1.0" encoding="UTF-8"?>
<svg id="Capa_1" data-name="Capa 1" xmlns="http://www.w3.org/2000/svg" viewBox="0 0 180 180">
  <defs>
    <style>
      .cls-1 {
        fill: #062f4f;
      }

      .cls-2 {
        fill: #87f96e;
      }
    </style>
  </defs>
  <path class="cls-2" d="m33.71,64.43v51.14c0,4.29,2.29,8.25,6,10.39l44.29,25.57c3.71,2.14,8.29,2.14,12,0l44.29-25.57c3.71-2.14,6-6.11,6-10.39v-51.14c0-4.29-2.29-8.25-6-10.39l-44.29-25.57c-3.71-2.14-8.29-2.14-12,0l-44.29,25.57c-3.71,2.14-6,6.11-6,10.39Z"/>
  <polygon class="cls-1" points="90 90 90 90 90 90 90 90"/>
  <path class="cls-1" d="m93.67,54.62l23.65,13.65c1.24.72,2.28,1.69,3.11,2.8l10.59-6.11c-.99-1.38-2.25-2.58-3.77-3.46l-31.19-18.01c-3.75-2.16-8.37-2.16-12.11,0l-4.6,2.66c-.08.04-.08.15,0,.2l14.33,8.27Z"/>
  <path class="cls-1" d="m91.17,125.55v12.5c1.67-.16,3.32-.65,4.83-1.52l8.29-4.79v-12.5l-8.29,4.79c-1.5.87-3.15,1.35-4.83,1.52Z"/>
  <path class="cls-1" d="m121.6,73.11c.55,1.27.87,2.66.87,4.09v15.01s-.02.08-.06.1l-26.42,15.25c-1.5.87-3.15,1.35-4.83,1.52v11.98c1.67-.16,3.32-.65,4.83-1.52l26.31-15.19c.08-.04.17.01.17.1v16.61c0,.09.09.14.17.1l4.6-2.66c3.75-2.16,6.06-6.16,6.06-10.49v-36.01c0-1.76-.41-3.45-1.11-4.99l-10.59,6.11Z"/>
  <path class="cls-1" d="m91.17,90.68v13.88c1.67-.16,3.32-.65,4.83-1.52l8.29-4.79v-9.55c0-1.62-.38-3.33-1.11-4.95l-12,6.93Z"/>
  <path class="cls-1" d="m88.83,125.55c-1.67-.16-3.32-.65-4.83-1.52l-25.58-14.77c-.55-.32-.9-.91-.9-1.55,0-1.54,1.67-2.5,3-1.73l23.48,13.55c1.5.87,3.15,1.35,4.83,1.52v-11.98c-1.67-.16-3.32-.65-4.83-1.52l-25.56-14.76c-.57-.33-.92-.93-.92-1.59,0-1.54,1.67-2.5,3-1.73l23.48,13.55c1.5.87,3.15,1.35,4.83,1.52v-13.87l-41.03-23.69c-.69,1.53-1.1,3.2-1.1,4.93v36.14c0,4.29,2.29,8.25,6,10.39l31.3,18.07c1.5.87,3.15,1.35,4.83,1.52v-12.5Z"/>
  <path class="cls-1" d="m90,88.65l12.03-6.94c-.93-1.32-2.15-2.51-3.7-3.4l-37.32-21.56-8.3,4.79c-1.51.87-2.75,2.06-3.73,3.42l41.03,23.69Z"/>
</svg>